PathFileType	4	(X/Y/Z)	C:\Users\Basilio\Documents\Thesis Gigler\squatting_fais\c3dfiles\041\SLS_pre_back5\markers_experimental.trc
DataRate	CameraRate	NumFrames	NumMarkers	Units	OrigDataRate	OrigDataStartFrame	OrigNumFrames
200.000000	200.000000	4	64	mm	200.000000	1183	1353
Frame#	Time	FHD			LBHD			RBHD			C7			T10			CLAV			LSHO			LUUPA			LMUPA			LDUPA			LLEP			LMEP			LRAD			LUL			LRFIN			RSHO			RUPA1			RMUPA			RDUPA			RLEP			RMEP			RRAD			RUL			RUFIN			LASI			RASI			USACR			LSACR			RSACR			LTHI1			LTHI2			LTHI3			LTHI4			LLFC			LMFC			LTIB1			LTIB2			LTIB3			LTIB4			LLMAL			LMMAL			LHEE			LMT1			LMT2			LMT5			RTHI			RTHI2			RTHI3			RTHI4			RLFC			RMFC			RTIB1			RTIB2			RTIB3			RTIB4			RLMAL			RMMAL			RHEE			RMT1			RMT2			RMT5			*61			*62			*63			
		X1	Y1	Z1	X2	Y2	Z2	X3	Y3	Z3	X4	Y4	Z4	X5	Y5	Z5	X6	Y6	Z6	X7	Y7	Z7	X8	Y8	Z8	X9	Y9	Z9	X10	Y10	Z10	X11	Y11	Z11	X12	Y12	Z12	X13	Y13	Z13	X14	Y14	Z14	X15	Y15	Z15	X16	Y16	Z16	X17	Y17	Z17	X18	Y18	Z18	X19	Y19	Z19	X20	Y20	Z20	X21	Y21	Z21	X22	Y22	Z22	X23	Y23	Z23	X24	Y24	Z24	X25	Y25	Z25	X26	Y26	Z26	X27	Y27	Z27	X28	Y28	Z28	X29	Y29	Z29	X30	Y30	Z30	X31	Y31	Z31	X32	Y32	Z32	X33	Y33	Z33	X34	Y34	Z34	X35	Y35	Z35	X36	Y36	Z36	X37	Y37	Z37	X38	Y38	Z38	X39	Y39	Z39	X40	Y40	Z40	X41	Y41	Z41	X42	Y42	Z42	X43	Y43	Z43	X44	Y44	Z44	X45	Y45	Z45	X46	Y46	Z46	X47	Y47	Z47	X48	Y48	Z48	X49	Y49	Z49	X50	Y50	Z50	X51	Y51	Z51	X52	Y52	Z52	X53	Y53	Z53	X54	Y54	Z54	X55	Y55	Z55	X56	Y56	Z56	X57	Y57	Z57	X58	Y58	Z58	X59	Y59	Z59	X60	Y60	Z60	X61	Y61	Z61	X62	Y62	Z62	X63	Y63	Z63	X64	Y64	Z64	

1184	5.915	-107.4719924926758	1759.400268554688	-769.3641357421877	-287.2827758789063	1664.477172851563	-783.509948730469	-218.7729797363282	1675.257080078125	-646.3967895507814	-301.2227783203126	1537.2109375	-750.6120605468751	-337.9960327148438	1222.143432617188	-776.5504150390627	-147.6729583740235	1466.9755859375	-770.0508422851565	-221.5914154052735	1538.505249023438	-931.8677368164065	-213.3361816406251	1347.899169921875	-1022.679382324219	-175.8216094970703	1321.8828125	-1006.230712890625	-207.6416778564454	1280.310424804688	-1038.917236328125	-203.2729034423829	1229.513916015625	-1044.15087890625	-224.4175262451172	1191.517944335938	-967.0966796875002	2.568117380142212	1064.7998046875	-949.0427856445315	-24.59192466735841	1034.014404296875	-1011.054077148438	72.2485809326172	1030.481567382813	-955.7549438476565	-192.427230834961	1495.121948242188	-592.9048461914064	-181.5786590576172	1284.822265625	-503.4956970214845	-132.0090637207032	1290.569702148438	-508.2223205566407	-134.9108428955078	1233.62939453125	-490.967254638672	-110.9315872192383	1194.2412109375	-486.5714111328126	-129.4945068359375	1160.585205078125	-568.2279663085939	112.4140319824219	1066.931762695313	-552.4896850585939	73.17613220214845	1015.281921386719	-513.1682739257814	180.3930053710938	1039.2470703125	-527.2658691406251	-182.7425384521485	1039.826416015625	-919.8201293945315	-161.0466461181641	1021.702026367188	-692.3428344726564	-347.0000305175782	1109.098754882813	-783.4651489257815	-364.7017517089844	1083.508178710938	-809.7222290039065	-359.8486633300782	1081.370727539063	-754.5380249023439	-303.4480285644532	842.0214843750002	-1001.343994140625	-264.7186889648438	767.6489868164064	-1015.694458007813	-216.6207275390626	771.6733398437502	-1009.104309082031	-290.2276916503907	712.3114013671876	-1011.500915527344	-263.0064697265626	539.8471679687501	-1033.34423828125	-249.5830230712891	495.967254638672	-923.0848388671877	-259.4901123046876	339.4549865722657	-1023.07861328125	-314.4191894531251	319.9187011718751	-1091.1982421875	-277.6162414550782	304.3497619628907	-1068.764038085938	-293.2611999511719	223.1387481689454	-1053.821411132813	-366.9186096191407	145.5609130859375	-1113.427734375	-331.2789916992188	137.5170593261719	-1030.501953125	-438.8515930175782	119.7069396972657	-1080.541381835938	-235.2876434326172	61.8801612854004	-1047.04638671875	-224.3260803222657	58.45592498779298	-1091.701416015625	-270.4382019042969	48.9132423400879	-1147.327270507813	-250.636215209961	760.0616455078126	-632.6085815429689	-209.4608154296876	708.6629028320314	-636.9265136718751	-176.6809387207032	713.4330444335939	-643.0289916992189	-230.8117065429688	628.8142089843751	-652.2698364257814	-219.9210968017579	503.2683105468751	-660.6720581054689	-221.3013763427735	491.0625305175782	-780.7442626953127	-194.8959655761719	334.9408264160157	-682.8519897460939	-277.8039245605469	261.5733337402344	-658.0962524414064	-232.310043334961	256.5672607421876	-667.4262695312501	-217.4137573242188	209.5885314941407	-701.1157836914064	-279.8313293457032	97.73599243164065	-684.0892944335939	-261.7096557617188	114.4475173950196	-766.0260009765626	-341.8563232421876	68.53281402587892	-727.4969482421876	-130.062728881836	52.72706985473634	-764.9238281250001	-120.1957015991211	55.61312103271486	-713.2611083984376	-160.3401336669922	37.76534652709962	-658.0599365234376	-4216.738281250001	852.9714355468752	-3944.698486328126	nan	nan	nan	nan	nan	nan	
1185	5.92	-107.0225448608399	1759.768432617188	-767.8021850585939	-287.0535278320313	1664.55517578125	-781.9129638671877	-218.2000579833985	1675.197021484375	-644.8891601562501	-300.8379211425782	1537.228515625	-749.1469116210939	-337.5906677246094	1222.33203125	-775.3393554687502	-147.3272857666016	1467.125610351563	-768.8049316406252	-221.3260498046876	1538.854858398438	-930.513366699219	-213.1229400634766	1348.187255859375	-1021.572326660156	-175.8701324462891	1322.335693359375	-1005.020263671875	-207.8222045898438	1280.8291015625	-1037.763549804688	-203.4317779541016	1229.938232421875	-1043.124633789063	-225.9629821777344	1192.015380859375	-965.8846435546877	2.819619178771973	1066.027465820313	-947.4746704101565	-24.13057136535645	1035.103759765625	-1009.613525390625	72.61175537109376	1031.747314453125	-954.1455688476565	-191.8209991455078	1495.209106445313	-591.8166503906251	-180.5569000244141	1284.951782226563	-502.1336975097657	-131.2314453125	1290.842529296875	-506.7314453125001	-133.9422607421875	1233.892578125	-489.6241149902345	-110.0603637695313	1194.48876953125	-484.8563842773439	-128.2520446777344	1160.752197265625	-566.7729492187501	114.3960418701172	1069.307250976563	-551.5620727539064	75.74956512451173	1017.127502441406	-512.3420410156251	183.1001129150391	1042.09423828125	-526.5903320312501	-182.02490234375	1039.968505859375	-919.0298461914065	-160.6513671875	1021.73876953125	-691.7002563476564	-346.7142639160157	1109.299072265625	-782.3532714843752	-364.4132690429688	1083.66943359375	-808.6455688476565	-359.4305419921876	1081.463012695313	-753.5278320312501	-303.4248962402344	842.480895996094	-1000.616149902344	-264.6956787109376	768.0591430664065	-1015.080383300781	-216.6200103759766	771.969421386719	-1008.579040527344	-290.4333190917969	712.7411499023439	-1010.923461914063	-263.2824401855469	540.1641845703126	-1032.796508789063	-249.8365631103516	496.3222656250001	-922.5726318359377	-259.4231567382813	339.7612915039063	-1022.597595214844	-314.5213317871094	320.2411804199219	-1090.548461914063	-277.5308227539063	304.8585510253907	-1068.592895507813	-292.9932556152344	223.4574279785157	-1053.607299804688	-366.7722167968751	145.9551391601563	-1112.938354492188	-330.9421997070313	137.6196594238282	-1030.217651367188	-438.5811767578126	120.0397415161133	-1079.939086914063	-234.8398437500001	61.52358245849611	-1047.138549804688	-224.2694854736329	58.45673751831056	-1091.659790039063	-270.5079345703126	48.99634933471681	-1147.254760742188	-250.4737701416016	760.1265869140626	-632.1553955078126	-209.2693023681641	708.6509399414064	-636.5183715820314	-176.5555877685547	713.2929077148439	-642.5818481445314	-230.8643798828126	628.8185424804689	-651.8846435546876	-220.0278472900391	503.3074035644532	-660.4019775390626	-221.4500885009766	491.2164611816407	-780.5078735351565	-195.0500183105469	335.0353393554688	-682.7033081054689	-277.8721923828126	261.5647277832032	-658.0206298828126	-232.3186492919922	256.5313720703126	-667.3840942382814	-217.7587432861329	209.9174957275391	-701.1926879882814	-279.8064575195313	97.75418853759768	-684.1024780273439	-261.6600646972657	114.4082946777344	-766.0392456054689	-341.8417663574219	68.5864944458008	-727.5563354492189	-130.0420227050782	52.69485473632814	-764.9437866210939	-120.189567565918	55.59014892578126	-713.2745971679689	-160.3684692382813	37.78244400024415	-658.1036376953126	-4216.530273437501	853.1812744140627	-3945.215087890626	nan	nan	nan	nan	nan	nan	
1186	5.925	-106.5574798583985	1759.930786132813	-766.3905029296876	-286.6707458496094	1664.563232421875	-780.319763183594	-217.9652404785157	1675.237426757813	-643.3647460937501	-300.2435607910157	1537.424560546875	-747.7532348632814	-337.3233337402344	1222.509155273438	-774.2509765625002	-146.9968872070313	1467.283325195313	-767.6640014648439	-221.2691040039063	1539.190673828125	-929.1475830078127	-213.2786560058594	1348.607788085938	-1020.294921875	-175.8759002685547	1322.647094726563	-1003.986022949219	-207.8110504150391	1281.24755859375	-1036.698364257813	-203.6316070556641	1230.403930664063	-1042.011352539063	-226.0420989990235	1192.337158203125	-964.6884765625002	2.952296018600464	1067.116577148438	-946.0801391601565	-23.66525077819825	1036.256103515625	-1008.361572265625	73.17810821533205	1033.081420898438	-952.5263671875002	-190.8192596435547	1495.239013671875	-590.5917968750001	-179.6217346191407	1284.986938476563	-500.8340454101564	-130.303955078125	1291.097412109375	-505.5571899414064	-132.7183990478516	1234.102905273438	-488.3911437988282	-108.8719177246094	1194.68017578125	-482.9968566894532	-126.8590621948242	1160.862670898438	-565.5483398437501	116.5805435180664	1071.483032226563	-550.8510131835939	78.42171478271486	1018.912231445313	-512.1955566406251	184.9257507324219	1044.819458007813	-525.5557250976564	-182.037582397461	1040.302124023438	-918.3988037109377	-160.2586059570313	1021.734191894531	-690.8665771484376	-346.4525451660157	1109.478637695313	-781.4001464843752	-364.2206726074219	1083.859741210938	-807.6730957031252	-359.0937805175782	1081.612182617188	-752.6297607421876	-303.4143371582032	842.8831787109377	-999.9533691406252	-264.7948913574219	768.6430664062502	-1014.46533203125	-216.6688079833985	772.3205566406252	-1007.974731445313	-290.5653076171876	713.1382446289064	-1010.261962890625	-263.5309448242188	540.4678344726564	-1032.276611328125	-249.8387603759766	496.6399230957032	-922.0927734375002	-259.3183288574219	340.0839233398438	-1022.284362792969	-314.4214172363282	320.5049438476563	-1090.076782226563	-277.5215759277344	305.2692260742188	-1068.259887695313	-292.9181213378907	223.9100799560547	-1053.110107421875	-366.5857238769532	146.2770385742188	-1112.504028320313	-330.5895996093751	137.826904296875	-1029.96142578125	-438.3230285644532	120.42041015625	-1079.224487304688	-234.7556762695313	61.30294418334962	-1047.168579101563	-224.1048126220704	58.50013732910158	-1091.54736328125	-270.4619445800782	49.1567726135254	-1147.11669921875	-250.3288574218751	760.1713256835939	-631.6624755859376	-209.0722808837891	708.6376953125001	-636.2403564453126	-176.38427734375	713.1875000000001	-642.3327026367189	-230.9167480468751	628.9328613281251	-651.6116943359376	-220.2844696044922	503.3312377929689	-660.1205444335939	-221.6642761230469	491.3111572265626	-780.284118652344	-195.1757354736329	335.1031188964844	-682.5597534179689	-277.9628601074219	261.5739135742188	-657.9110107421876	-232.3379821777344	256.5278320312501	-667.3166503906251	-217.6256103515626	209.9063568115235	-701.0736083984376	-279.7820739746094	97.806266784668	-684.1207885742189	-261.6898193359376	114.4200744628907	-766.0323486328126	-341.8344421386719	68.5760955810547	-727.5812988281251	-130.0839385986328	52.6800003051758	-764.9760742187501	-120.1457672119141	55.58083343505861	-713.3329467773439	-160.362777709961	37.8238639831543	-658.1463012695314	-4216.715820312501	853.1264648437502	-3944.839111328126	nan	nan	nan	nan	nan	nan	
1187	5.93	-106.6286926269532	1760.102172851563	-765.1154785156251	-286.3982543945313	1664.68310546875	-778.841491699219	-217.4358825683594	1675.148803710938	-641.8007202148439	-299.8094787597657	1537.506469726563	-746.1902465820314	-336.9586791992188	1222.67431640625	-773.074401855469	-146.521957397461	1467.364990234375	-766.6483154296876	-220.8995819091797	1539.47900390625	-927.7888793945315	-213.3060455322266	1349.03857421875	-1019.191040039063	-175.9463958740235	1322.902709960938	-1002.944213867188	-207.9421539306641	1281.639526367188	-1035.620849609375	-203.8690185546876	1230.841430664063	-1041.015502929688	-225.963119506836	1192.631591796875	-963.7454223632815	3.092665672302247	1068.308349609375	-944.7274169921877	-23.28339004516602	1037.198486328125	-1007.134582519531	73.04161834716798	1034.335815429688	-951.059265136719	-190.3848114013672	1495.125122070313	-589.2070922851564	-178.7019195556641	1285.122192382813	-499.5476379394532	-129.1286773681641	1291.240356445313	-504.277557373047	-131.6378631591797	1234.405883789063	-487.0908813476564	-107.5487136840821	1194.880981445313	-482.1006164550782	-125.6058578491211	1161.149169921875	-564.1312866210939	119.1355590820313	1073.689208984375	-550.6406250000001	80.73824310302736	1020.523315429688	-511.6583862304689	187.1262969970703	1047.688354492188	-525.1913452148439	-182.0812225341797	1040.439697265625	-917.5682373046877	-159.8997344970703	1021.813537597656	-690.1555786132814	-346.1530761718751	1109.63232421875	-780.3701782226565	-364.0309448242188	1084.089965820313	-806.6461181640627	-358.7352905273438	1081.715454101563	-751.6556396484376	-303.3977050781251	843.2095336914065	-999.2847290039065	-264.7472839355469	768.9577636718752	-1013.743408203125	-217.1852722167969	772.826599121094	-1007.489562988281	-290.4509277343751	713.3906860351564	-1009.826782226563	-263.6803894042969	540.8202514648439	-1031.731811523438	-249.7206573486329	496.9351196289064	-921.719421386719	-259.2394104003907	340.3703002929688	-1021.966491699219	-314.3456726074219	320.8871459960938	-1089.818359375	-277.5845642089844	305.6716003417969	-1067.825317382813	-292.7553405761719	224.1813049316407	-1052.86181640625	-366.3694458007813	146.6580963134766	-1112.16748046875	-330.2145996093751	137.9713134765625	-1029.72119140625	-438.1124877929689	120.8776397705078	-1078.731079101563	-234.5922241210938	61.19825363159181	-1047.164428710938	-224.0464019775391	58.42656707763673	-1091.537353515625	-270.4754028320313	49.25719833374025	-1147.046508789063	-250.1053161621094	760.1958007812501	-631.0769042968751	-208.7796020507813	708.5129394531251	-635.8903198242189	-176.2319946289063	713.1991577148439	-641.7733154296876	-230.9000244140626	629.0101318359376	-651.1148071289064	-220.3552856445313	503.3207092285157	-659.7843017578126	-221.7741851806641	491.3748168945314	-780.040466308594	-195.3098297119141	335.1724243164063	-682.3865966796876	-277.9538269042969	261.5692138671876	-657.7869873046876	-232.3662567138672	256.5372924804688	-667.3267822265626	-217.6950988769532	209.9717559814454	-701.0809936523439	-279.7723999023438	97.78823852539065	-684.1597290039064	-261.7079162597657	114.4172668457032	-766.1104736328126	-341.8641662597657	68.58389282226564	-727.6157226562501	-130.2545776367188	52.75584030151369	-765.0363159179689	-120.1756668090821	55.60639953613283	-713.3089599609376	-160.345443725586	37.83153533935548	-658.1582641601564	-4216.944335937501	853.0888671875002	-3944.697753906251	nan	nan	nan	nan	nan	nan	
